<?xml version="1.0" encoding="UTF-8" standalone="no"?><!DOCTYPE svg PUBLIC "-//W3C//DTD SVG 1.1//EN" "http://www.w3.org/Graphics/SVG/1.1/DTD/svg11.dtd"><svg width="100%" height="100%" viewBox="0 0 2100 500" version="1.1" xmlns="http://www.w3.org/2000/svg" xmlns:xlink="http://www.w3.org/1999/xlink" xml:space="preserve" xmlns:serif="http://www.serif.com/" style="fill-rule:evenodd;clip-rule:evenodd;"><g id="Khronos"><g><path d="M44.618,263.079l-43.412,0l0,-221.993l43.412,0l0,221.993Zm0.658,-110.284l67.201,-111.709l48.454,0l-71.257,110.174l71.257,111.71l-48.454,0l-67.201,-110.175Z" style="fill-rule:nonzero;"/><path d="M309.365,172.966l0,90.113l-43.412,0l0,-221.993l43.412,0l0,90.113l71.586,0l0,-90.113l43.412,0l0,221.993l-43.412,0l0,-90.113l-71.586,0Z" style="fill-rule:nonzero;"/><path d="M595.49,263.079l-43.412,0l0,-221.993l52.73,0c16.773,0 29.27,0.548 37.492,1.754c8.222,1.206 15.238,3.07 20.939,5.701c12.607,5.919 22.254,14.141 28.831,24.666c6.578,10.633 9.976,23.021 9.976,37.272c0,17.212 -4.714,31.792 -14.141,43.741c-9.428,11.95 -22.255,19.514 -38.479,22.803l55.471,86.056l-51.744,0l-57.554,-102.939l0,102.939l-0.109,0Zm0,-113.792l9.647,0c17.65,0 31.024,-3.179 40.233,-9.537c9.099,-6.359 13.703,-15.677 13.703,-27.845c0,-11.84 -3.837,-20.5 -11.511,-26.091c-7.674,-5.591 -19.623,-8.442 -35.848,-8.442l-16.224,0l0,71.915Z" style="fill-rule:nonzero;"/><path d="M1318.04,263.079l-42.644,0l0,-221.993l41.219,0l91.867,141.747l0,-141.747l42.644,0l0,221.993l-40.342,0l-92.744,-146.022l0,146.022Z" style="fill-rule:nonzero;"/><path d="M1569.52,151.589c0,-12.168 1.644,-23.679 4.933,-34.532c3.289,-10.853 8.112,-20.939 14.471,-30.366c10.962,-16.006 24.775,-28.284 41.329,-36.944c16.553,-8.661 34.642,-13.046 54.265,-13.046c14.799,0 28.941,2.85 42.644,8.551c13.703,5.7 25.872,13.922 36.725,24.556c11.072,11.072 19.513,23.57 25.324,37.383c5.81,13.813 8.66,28.393 8.66,43.631c0,15.896 -2.741,30.695 -8.222,44.618c-5.481,13.922 -13.484,26.31 -24.008,37.053c-10.634,11.292 -23.131,19.952 -37.273,25.982c-14.142,6.029 -29.051,9.099 -44.508,9.099c-16.554,0 -31.792,-2.96 -45.824,-8.88c-13.922,-5.92 -26.31,-14.58 -37.054,-26.201c-10.414,-10.962 -18.198,-23.24 -23.569,-36.944c-5.262,-13.703 -7.893,-28.393 -7.893,-43.96Zm45.385,-1.534c0,9.537 1.535,18.417 4.714,26.639c3.179,8.222 7.783,15.786 14.032,22.583c6.797,7.454 14.58,13.155 23.241,17.101c8.66,4.057 17.65,6.03 26.858,6.03c19.404,0 35.738,-6.907 48.894,-20.72c13.155,-13.812 19.732,-31.024 19.732,-51.633c0,-18.856 -6.687,-34.971 -19.952,-48.346c-13.265,-13.374 -29.27,-20.061 -47.906,-20.061c-19.404,0 -35.958,6.687 -49.442,19.952c-13.374,13.374 -20.171,29.489 -20.171,48.455Z" style="fill-rule:nonzero;"/><path d="M1902.67,194.344l39.794,-0.11l0,3.179c0,9.318 2.412,16.773 7.235,22.364c4.824,5.591 11.292,8.441 19.295,8.441c8.66,0 15.457,-2.631 20.5,-7.783c5.043,-5.262 7.564,-12.279 7.564,-21.268c0,-14.251 -10.195,-24.556 -30.586,-30.695c-2.631,-0.768 -4.714,-1.425 -6.248,-1.974c-17.212,-5.371 -30.038,-13.045 -38.37,-22.911c-8.331,-9.867 -12.497,-22.474 -12.497,-37.602c0,-20.829 5.81,-37.602 17.321,-50.209c11.511,-12.607 26.858,-18.965 46.153,-18.965c17.978,0 32.339,5.591 42.973,16.772c10.634,11.182 16.663,26.969 17.869,47.14l-39.356,0l0,-1.864c0,-7.016 -2.192,-12.717 -6.468,-16.992c-4.275,-4.275 -9.866,-6.468 -16.772,-6.468c-7.126,0 -12.717,2.193 -16.883,6.687c-4.166,4.495 -6.139,10.524 -6.139,18.198c0,3.289 0.439,6.139 1.316,8.551c0.877,2.521 2.192,4.714 4.056,6.687c4.166,4.605 13.155,8.77 26.858,12.717c6.139,1.644 10.744,2.96 14.032,4.166c15.238,5.152 26.53,12.607 33.765,22.254c7.236,9.647 10.853,22.035 10.853,37.054c0,22.911 -6.358,41.219 -19.075,55.142c-12.716,13.922 -29.599,20.828 -50.537,20.828c-19.843,0 -35.739,-6.687 -48.017,-20.061c-12.059,-13.594 -18.307,-31.353 -18.636,-53.278Z" style="fill-rule:nonzero;"/></g><g><path d="M14.69,499.543c-2.631,0 -4.933,-0.219 -6.797,-0.767c-1.864,-0.549 -3.398,-1.316 -4.604,-2.193c-1.206,-0.987 -2.083,-2.083 -2.522,-3.398c-0.548,-1.316 -0.767,-2.741 -0.767,-4.385l0,-23.241c0,-1.535 0.219,-3.07 0.767,-4.385c0.549,-1.316 1.426,-2.522 2.522,-3.399c1.206,-0.986 2.74,-1.754 4.604,-2.192c1.864,-0.548 4.166,-0.768 6.797,-0.768l37.931,0l0,6.688l-37.931,0c-3.947,0 -5.92,1.425 -5.92,4.165l0,23.351c0,2.74 1.973,4.166 5.92,4.166l37.931,0l0,6.687l-37.931,0l0,-0.329Z" style="fill-rule:nonzero;stroke:#000;stroke-width:1.07px;"/><path d="M85.837,499.543c-2.631,0 -4.933,-0.219 -6.796,-0.767c-1.864,-0.549 -3.399,-1.316 -4.605,-2.193c-1.206,-0.987 -2.083,-2.083 -2.521,-3.398c-0.548,-1.316 -0.768,-2.741 -0.768,-4.385l0,-23.241c0,-1.535 0.22,-3.07 0.768,-4.385c0.548,-1.316 1.425,-2.522 2.521,-3.399c1.206,-0.986 2.741,-1.754 4.605,-2.192c1.863,-0.548 4.165,-0.768 6.796,-0.768l31.025,0c2.631,0 4.933,0.22 6.796,0.768c1.864,0.548 3.399,1.315 4.605,2.192c1.206,0.987 2.083,2.083 2.521,3.399c0.548,1.315 0.767,2.85 0.767,4.385l0,23.241c0,1.644 -0.219,3.069 -0.767,4.385c-0.548,1.315 -1.425,2.411 -2.521,3.398c-1.206,0.987 -2.741,1.754 -4.605,2.193c-1.863,0.548 -4.165,0.767 -6.796,0.767l-31.025,0Zm36.944,-34.203c0,-2.741 -1.973,-4.166 -5.919,-4.166l-31.134,0c-3.947,0 -5.92,1.425 -5.92,4.166l0,23.35c0,2.741 1.973,4.166 5.92,4.166l31.134,0c3.946,0 5.919,-1.425 5.919,-4.166l0,-23.35Z" style="fill-rule:nonzero;stroke:#000;stroke-width:1.07px;"/><path d="M209.276,499.543l-50.208,-34.971l0,34.971l-7.784,0l0,-44.947l7.784,0l46.81,33.436l0,-33.436l7.784,0l0,44.947l-4.386,0Z" style="fill-rule:nonzero;stroke:#000;stroke-width:1.07px;"/><path d="M291.606,499.543l-50.209,-34.971l0,34.971l-7.784,0l0,-44.947l7.784,0l46.81,33.436l0,-33.436l7.784,0l0,44.947l-4.385,0Z" style="fill-rule:nonzero;stroke:#000;stroke-width:1.07px;"/><path d="M315.724,499.543l0,-44.947l48.454,0l0,6.687l-39.575,0l0,11.292l37.492,0l0,6.687l-37.492,0l0,13.813l39.575,0l0,6.687l-48.454,0l0,-0.219Z" style="fill-rule:nonzero;stroke:#000;stroke-width:1.07px;"/><path d="M397.395,499.543c-2.631,0 -4.933,-0.219 -6.797,-0.767c-1.863,-0.549 -3.398,-1.316 -4.604,-2.193c-1.206,-0.987 -2.083,-2.083 -2.521,-3.398c-0.549,-1.316 -0.768,-2.741 -0.768,-4.385l0,-23.241c0,-1.535 0.219,-3.07 0.768,-4.385c0.548,-1.316 1.425,-2.522 2.521,-3.399c1.206,-0.986 2.741,-1.754 4.604,-2.192c1.864,-0.548 4.166,-0.768 6.797,-0.768l37.931,0l0,6.688l-37.931,0c-3.946,0 -5.92,1.425 -5.92,4.165l0,23.351c0,2.74 1.974,4.166 5.92,4.166l37.931,0l0,6.687l-37.931,0l0,-0.329Z" style="fill-rule:nonzero;stroke:#000;stroke-width:1.07px;"/><path d="M475.887,499.543l0,-38.369l-24.665,0l0,-6.687l57.553,0l0,6.687l-24.008,0l0,38.369l-8.88,0Z" style="fill-rule:nonzero;stroke:#000;stroke-width:1.07px;"/><rect x="526.316" y="454.596" width="8.88" height="44.947" style="fill-rule:nonzero;stroke:#000;stroke-width:1.07px;"/><path d="M613.578,499.543l-50.209,-34.971l0,34.971l-7.783,0l0,-44.947l7.783,0l46.811,33.436l0,-33.436l7.783,0l0,44.947l-4.385,0Z" style="fill-rule:nonzero;stroke:#000;stroke-width:1.07px;"/><path d="M654.249,499.543c-11.182,0 -16.772,-3.289 -16.772,-9.757l0,-25.543c0,-6.468 5.59,-9.756 16.772,-9.756l36.835,0l0,6.687l-36.835,0c-5.262,0 -7.893,0.986 -7.893,3.069l0,25.543c0,2.083 2.631,3.07 7.893,3.07l20.829,0c5.262,0 7.893,-0.987 7.893,-2.96l0,-14.909l8.88,0l0,14.909c0,6.358 -5.591,9.537 -16.773,9.537l-20.829,0l0,0.11Z" style="fill-rule:nonzero;stroke:#000;stroke-width:1.07px;"/><path d="M764.314,499.543l0,-6.687l41,0c3.947,0 5.92,-1.425 5.92,-4.166l0,-5.701c0,-2.74 -1.973,-4.165 -5.92,-4.165l-27.735,0c-2.631,0 -4.933,-0.22 -6.797,-0.768c-1.864,-0.548 -3.398,-1.315 -4.604,-2.192c-1.206,-0.987 -2.083,-2.083 -2.522,-3.399c-0.548,-1.315 -0.767,-2.74 -0.767,-4.385l0,-2.631c0,-1.535 0.219,-3.069 0.767,-4.385c0.548,-1.315 1.425,-2.521 2.522,-3.398c1.206,-0.987 2.74,-1.754 4.604,-2.193c1.864,-0.548 4.166,-0.767 6.797,-0.767l39.904,0l0,6.687l-39.904,0c-3.947,0 -5.92,1.425 -5.92,4.166l0,2.74c0,2.741 1.973,4.166 5.92,4.166l27.735,0c2.631,0 4.933,0.22 6.797,0.768c1.864,0.548 3.399,1.315 4.604,2.192c1.206,0.987 2.083,2.083 2.522,3.399c0.548,1.315 0.767,2.85 0.767,4.385l0,5.591c0,1.644 -0.219,3.069 -0.767,4.385c-0.548,1.315 -1.425,2.411 -2.522,3.398c-1.205,0.987 -2.74,1.754 -4.604,2.193c-1.864,0.548 -4.166,0.767 -6.797,0.767l-41,0Z" style="fill-rule:nonzero;stroke:#000;stroke-width:1.07px;"/><path d="M853.002,499.543c-2.631,0 -4.934,-0.219 -6.797,-0.767c-1.864,-0.549 -3.399,-1.316 -4.604,-2.193c-1.206,-0.987 -2.083,-2.083 -2.522,-3.398c-0.548,-1.316 -0.767,-2.741 -0.767,-4.385l0,-23.241c0,-1.535 0.219,-3.07 0.767,-4.385c0.548,-1.316 1.425,-2.522 2.522,-3.399c1.205,-0.986 2.74,-1.754 4.604,-2.192c1.863,-0.548 4.166,-0.768 6.797,-0.768l31.134,0c2.631,0 4.933,0.22 6.796,0.768c1.864,0.548 3.399,1.315 4.605,2.192c1.206,0.987 2.083,2.083 2.521,3.399c0.548,1.315 0.767,2.85 0.767,4.385l0,23.241c0,1.644 -0.219,3.069 -0.767,4.385c-0.548,1.315 -1.425,2.411 -2.521,3.398c-1.206,0.987 -2.741,1.754 -4.605,2.193c-1.863,0.548 -4.165,0.767 -6.796,0.767l-31.134,0Zm36.944,-34.203c0,-2.741 -1.974,-4.166 -5.92,-4.166l-31.134,0c-3.946,0 -5.92,1.425 -5.92,4.166l0,23.35c0,2.741 1.974,4.166 5.92,4.166l31.134,0c3.946,0 5.92,-1.425 5.92,-4.166l0,-23.35Z" style="fill-rule:nonzero;stroke:#000;stroke-width:1.07px;"/><path d="M927.328,481.016l0,18.527l-8.879,0l0,-44.947l48.454,0l0,6.687l-39.575,0l0,13.156l36.944,0l0,6.687l-36.944,0l0,-0.11Z" style="fill-rule:nonzero;stroke:#000;stroke-width:1.07px;"/><path d="M1007.14,499.543l0,-38.369l-24.666,0l0,-6.687l57.554,0l0,6.687l-24.008,0l0,38.369l-8.88,0Z" style="fill-rule:nonzero;stroke:#000;stroke-width:1.07px;"/><path d="M1114.02,499.543l-16.335,-34.532l-16.663,34.532l-6.468,0l-21.706,-44.947l8.551,0l16.334,34.532l16.554,-34.532l6.578,0l16.334,34.532l16.553,-34.532l8.661,0l-21.706,44.947l-6.687,0Z" style="fill-rule:nonzero;stroke:#000;stroke-width:1.07px;"/><path d="M1201.83,499.543l-8.66,-12.826l-32.45,0l-8.66,12.826l-9.537,0l31.243,-44.947l6.468,0l31.134,44.947l-9.538,0Zm-24.666,-36.725l-11.73,17.321l23.46,0l-11.73,-17.321Z" style="fill-rule:nonzero;stroke:#000;stroke-width:1.07px;"/><path d="M1272.1,499.543l-11.073,-20.062l-24.775,0l0,20.062l-8.88,0l0,-44.947l40.014,0c2.631,0 4.933,0.219 6.797,0.768c1.863,0.548 3.398,1.315 4.604,2.192c1.206,0.987 2.083,2.083 2.521,3.399c0.548,1.315 0.768,2.85 0.768,4.385l0,3.179c0,2.85 -0.877,5.262 -2.631,7.235c-1.754,1.973 -4.824,3.07 -8.99,3.508l11.073,20.171l-9.428,0l0,0.11Zm1.096,-34.203c0,-2.741 -1.973,-4.166 -5.92,-4.166l-31.134,0l0,11.62l31.134,0c3.947,0 5.92,-1.425 5.92,-4.166l0,-3.288Z" style="fill-rule:nonzero;stroke:#000;stroke-width:1.07px;"/><path d="M1300.5,499.543l0,-44.947l48.455,0l0,6.687l-39.575,0l0,11.292l37.492,0l0,6.687l-37.492,0l0,13.813l39.575,0l0,6.687l-48.455,0l0,-0.219Z" style="fill-rule:nonzero;stroke:#000;stroke-width:1.07px;"/><path d="M1442.13,499.543l0,-38.369l-24.666,0l0,-6.687l57.554,0l0,6.687l-24.008,0l0,38.369l-8.88,0Z" style="fill-rule:nonzero;stroke:#000;stroke-width:1.07px;"/><path d="M1504.73,499.543c-2.631,0 -4.934,-0.219 -6.797,-0.767c-1.864,-0.549 -3.399,-1.316 -4.605,-2.193c-1.205,-0.987 -2.082,-2.083 -2.521,-3.398c-0.548,-1.316 -0.767,-2.741 -0.767,-4.385l0,-23.241c0,-1.535 0.219,-3.07 0.767,-4.385c0.548,-1.316 1.425,-2.522 2.521,-3.399c1.206,-0.986 2.741,-1.754 4.605,-2.192c1.863,-0.548 4.166,-0.768 6.797,-0.768l31.133,0c2.631,0 4.934,0.22 6.797,0.768c1.864,0.548 3.399,1.315 4.605,2.192c1.205,0.987 2.082,2.083 2.521,3.399c0.548,1.315 0.767,2.85 0.767,4.385l0,23.241c0,1.644 -0.219,3.069 -0.767,4.385c-0.548,1.315 -1.425,2.411 -2.521,3.398c-1.206,0.987 -2.741,1.754 -4.605,2.193c-1.863,0.548 -4.166,0.767 -6.797,0.767l-31.133,0Zm36.944,-34.203c0,-2.741 -1.974,-4.166 -5.92,-4.166l-31.024,0c-3.947,0 -5.92,1.425 -5.92,4.166l0,23.35c0,2.741 1.973,4.166 5.92,4.166l31.133,0c3.947,0 5.92,-1.425 5.92,-4.166l0,-23.35l-0.109,0Z" style="fill-rule:nonzero;stroke:#000;stroke-width:1.07px;"/><path d="M1623.35,499.543l0,-6.687l40.891,0c3.946,0 5.92,-1.425 5.92,-4.166l0,-5.701c0,-2.74 -1.974,-4.165 -5.92,-4.165l-27.736,0c-2.631,0 -4.933,-0.22 -6.797,-0.768c-1.863,-0.548 -3.398,-1.315 -4.604,-2.192c-1.206,-0.987 -2.083,-2.083 -2.521,-3.399c-0.548,-1.315 -0.768,-2.74 -0.768,-4.385l0,-2.631c0,-1.535 0.22,-3.069 0.768,-4.385c0.548,-1.315 1.425,-2.521 2.521,-3.398c1.206,-0.987 2.741,-1.754 4.604,-2.193c1.864,-0.548 4.166,-0.767 6.797,-0.767l39.904,0l0,6.687l-39.904,0c-3.946,0 -5.92,1.425 -5.92,4.166l0,2.74c0,2.741 1.974,4.166 5.92,4.166l27.736,0c2.631,0 4.933,0.22 6.797,0.768c1.863,0.548 3.398,1.315 4.604,2.192c1.206,0.987 2.083,2.083 2.521,3.399c0.548,1.315 0.768,2.85 0.768,4.385l0,5.591c0,1.644 -0.22,3.069 -0.768,4.385c-0.548,1.315 -1.425,2.411 -2.521,3.398c-1.206,0.987 -2.741,1.754 -4.604,2.193c-1.864,0.548 -4.166,0.767 -6.797,0.767l-40.891,0Z" style="fill-rule:nonzero;stroke:#000;stroke-width:1.07px;"/><rect x="1697.89" y="454.596" width="8.88" height="44.947" style="fill-rule:nonzero;stroke:#000;stroke-width:1.07px;"/><path d="M1727.05,499.543l0,-44.947l8.879,0l0,38.369l38.15,0l0,6.688l-47.029,0l0,-0.11Z" style="fill-rule:nonzero;stroke:#000;stroke-width:1.07px;"/><rect x="1791.95" y="454.596" width="8.88" height="44.947" style="fill-rule:nonzero;stroke:#000;stroke-width:1.07px;"/><path d="M1835.58,499.543c-2.631,0 -4.934,-0.219 -6.797,-0.767c-1.864,-0.549 -3.399,-1.316 -4.605,-2.193c-1.205,-0.987 -2.082,-2.083 -2.521,-3.398c-0.548,-1.316 -0.767,-2.741 -0.767,-4.385l0,-23.241c0,-1.535 0.219,-3.07 0.767,-4.385c0.548,-1.316 1.425,-2.522 2.521,-3.399c1.206,-0.986 2.741,-1.754 4.605,-2.192c1.863,-0.548 4.166,-0.768 6.797,-0.768l37.93,0l0,6.688l-37.93,0c-3.947,0 -5.92,1.425 -5.92,4.165l0,23.351c0,2.74 1.973,4.166 5.92,4.166l37.93,0l0,6.687l-37.93,0l0,-0.329Z" style="fill-rule:nonzero;stroke:#000;stroke-width:1.07px;"/><path d="M1906.62,499.543c-2.631,0 -4.933,-0.219 -6.796,-0.767c-1.864,-0.549 -3.399,-1.316 -4.605,-2.193c-1.206,-0.987 -2.083,-2.083 -2.521,-3.398c-0.548,-1.316 -0.768,-2.741 -0.768,-4.385l0,-23.241c0,-1.535 0.22,-3.07 0.768,-4.385c0.548,-1.316 1.425,-2.522 2.521,-3.399c1.206,-0.986 2.741,-1.754 4.605,-2.192c1.863,-0.548 4.165,-0.768 6.796,-0.768l31.134,0c2.631,0 4.933,0.22 6.797,0.768c1.864,0.548 3.398,1.315 4.604,2.192c1.206,0.987 2.083,2.083 2.522,3.399c0.548,1.315 0.767,2.85 0.767,4.385l0,23.241c0,1.644 -0.219,3.069 -0.767,4.385c-0.548,1.315 -1.425,2.411 -2.522,3.398c-1.206,0.987 -2.74,1.754 -4.604,2.193c-1.864,0.548 -4.166,0.767 -6.797,0.767l-31.134,0Zm36.944,-34.203c0,-2.741 -1.973,-4.166 -5.919,-4.166l-31.134,0c-3.947,0 -5.92,1.425 -5.92,4.166l0,23.35c0,2.741 1.973,4.166 5.92,4.166l31.134,0c3.946,0 5.919,-1.425 5.919,-4.166l0,-23.35Z" style="fill-rule:nonzero;stroke:#000;stroke-width:1.07px;"/><path d="M2030.17,499.543l-50.209,-34.971l0,34.971l-7.783,0l0,-44.947l7.783,0l46.811,33.436l0,-33.436l7.783,0l0,44.947l-4.385,0Z" style="fill-rule:nonzero;stroke:#000;stroke-width:1.07px;"/></g><g><path d="M1475.46,307.916l-5.919,6.578c-2.851,-2.522 -5.811,-4.385 -8.771,-5.481c-2.959,-1.206 -6.029,-1.754 -9.427,-1.754c-6.797,0 -12.498,2.411 -16.992,7.125c-4.605,4.714 -6.797,10.524 -6.797,17.431c0,6.906 2.302,12.716 6.797,17.43c4.604,4.714 10.195,7.126 16.992,7.126c2.96,0 5.81,-0.438 8.55,-1.425c2.631,-0.987 5.153,-2.412 7.455,-4.275l0,-14.69l-13.155,0l0,-8.77l22.583,0l0,28.502c-4.166,3.18 -8.332,5.591 -12.497,7.236c-4.166,1.534 -8.442,2.411 -12.936,2.411c-9.647,0 -17.65,-3.179 -24.009,-9.537c-6.358,-6.358 -9.537,-14.361 -9.537,-24.008c0,-4.276 0.767,-8.332 2.302,-12.278c1.535,-3.947 3.727,-7.455 6.468,-10.524c3.179,-3.508 6.907,-6.139 11.072,-8.003c4.166,-1.864 8.77,-2.741 13.704,-2.741c4.714,0 9.208,0.877 13.484,2.522c4.275,1.754 7.893,4.056 10.633,7.125Z" style="fill-rule:nonzero;"/><path d="M1568.09,299.914l12.168,0c3.398,0 6.249,0.219 8.441,0.548c2.193,0.438 4.166,0.986 5.81,1.863c2.741,1.426 4.934,3.618 6.468,6.468c1.645,2.851 2.412,6.139 2.412,9.647c0,4.166 -1.315,7.784 -4.056,10.853c-2.741,3.07 -6.358,4.934 -10.853,5.701l19.404,26.31l-8.989,3.837l-21.378,-31.024l0,29.27l-9.537,0.768l0,-64.241l0.11,0Zm9.537,8.441l0,20.171l3.398,0c4.057,0 7.236,-0.877 9.538,-2.741c2.192,-1.863 3.398,-4.385 3.398,-7.673c0,-3.289 -1.096,-5.701 -3.179,-7.345c-2.083,-1.645 -5.262,-2.522 -9.428,-2.522l-3.727,0l0,0.11Z" style="fill-rule:nonzero;"/><path d="M1725.19,298.269c4.166,0 8.112,0.658 11.84,2.083c3.727,1.316 7.125,3.289 9.976,5.92c3.727,3.398 6.687,7.235 8.66,11.62c1.973,4.385 2.96,9.099 2.96,13.923c0,4.166 -0.767,8.331 -2.302,12.278c-1.535,3.947 -3.728,7.455 -6.578,10.634c-3.179,3.508 -6.797,6.139 -11.072,8.002c-4.166,1.864 -8.77,2.741 -13.703,2.741c-4.166,0 -8.113,-0.658 -11.95,-2.083c-3.727,-1.315 -7.016,-3.289 -9.866,-5.92c-3.837,-3.398 -6.687,-7.235 -8.66,-11.73c-1.974,-4.385 -3.07,-9.099 -3.07,-13.922c0,-4.824 0.987,-9.538 3.07,-13.923c1.973,-4.385 4.933,-8.331 8.66,-11.62c2.85,-2.521 6.139,-4.495 9.866,-5.92c3.947,-1.425 7.894,-2.083 12.169,-2.083Zm0,8.88c-6.797,0 -12.497,2.412 -16.992,7.126c-4.604,4.714 -6.797,10.524 -6.797,17.43c0,6.907 2.302,12.717 6.797,17.431c4.604,4.714 10.195,7.016 17.102,7.016c6.796,0 12.387,-2.412 16.992,-7.126c4.604,-4.714 6.906,-10.524 6.906,-17.43c0,-6.907 -2.302,-12.717 -6.797,-17.431c-4.714,-4.604 -10.414,-7.016 -17.211,-7.016Z" style="fill-rule:nonzero;"/><path d="M1857.94,299.037l0,36.176c0,7.674 0.987,13.046 2.96,16.225c1.973,3.069 5.262,4.604 9.976,4.604c4.714,0 8.113,-1.425 10.195,-4.385c2.083,-2.96 3.18,-7.783 3.18,-14.58l0,-37.054l9.208,-0.877l0,40.123c0,5.153 -0.329,9.209 -1.096,11.95c-0.767,2.74 -2.083,5.152 -3.837,7.235c-1.754,2.083 -4.275,3.727 -7.345,5.043c-3.069,1.206 -6.358,1.863 -9.757,1.863c-7.674,0 -13.484,-2.192 -17.211,-6.467c-3.837,-4.276 -5.701,-10.853 -5.701,-19.624l0,-39.136l9.428,-1.096Z" style="fill-rule:nonzero;"/><path d="M1986.54,299.914l16.882,0c7.236,0 12.827,1.644 16.663,4.933c3.837,3.289 5.701,8.112 5.701,14.361c0,5.92 -2.192,10.634 -6.578,14.142c-4.385,3.508 -10.414,5.152 -18.088,5.152c-0.986,0 -2.631,-0.11 -4.823,-0.219c-0.11,0 -0.22,0 -0.22,0l0,25.214l-9.537,0.767l0,-64.35Zm9.537,8.441l0,21.267c0.877,0.11 1.754,0.22 2.631,0.329c0.987,0.11 1.974,0.11 3.18,0.11c4.604,0 8.112,-0.877 10.524,-2.741c2.411,-1.863 3.617,-4.495 3.617,-8.112c0,-3.727 -1.096,-6.468 -3.288,-8.222c-2.193,-1.754 -5.701,-2.631 -10.415,-2.631l-6.249,0Z" style="fill-rule:nonzero;"/></g><path d="M974.687,248.609c-76.19,-2.741 -180.226,-37.493 -201.822,-87.701c-18.637,-45.715 -0.11,-98.883 87.811,-136.704c52.182,-21.706 131.112,-27.845 191.955,-22.254c86.276,7.893 168.496,52.51 168.605,52.62l0,62.597l-0.109,4.165c0,0 -26.749,-24.227 -60.185,-43.74c-31.463,-18.418 -60.295,-31.353 -117.52,-36.616c-13.374,-1.205 -36.176,-4.275 -73.12,0.877c-14.909,2.083 -35.958,3.618 -83.316,24.447c-15.348,7.345 -29.49,15.129 -40.452,24.228c-5.701,4.713 -13.484,11.401 -18.966,17.101c-13.484,16.883 -20.609,29.599 -17.211,52.621c3.947,17.321 11.62,28.174 33.875,44.727c9.647,7.236 10.743,7.126 15.018,9.319c39.795,20.609 71.586,28.173 116.972,33.874" style="fill:#c33;fill-rule:nonzero;"/><path d="M978.853,53.474c76.409,-0.329 184.72,30.257 212.894,79.588c24.666,44.838 13.264,98.664 -69.394,139.774c-49.112,23.789 -127.056,32.997 -188.447,29.818c-87.153,-4.494 -175.073,-45.824 -175.183,-45.933l-8.331,-62.377l-0.549,-4.166c0,0 29.928,23.131 65.886,41.329c33.874,17.102 64.35,28.941 122.123,31.901c13.484,0.767 36.616,2.741 72.792,-3.727c14.58,-2.631 35.409,-5.043 79.808,-27.626c14.361,-7.893 27.407,-16.225 37.054,-25.762c5.043,-4.933 11.949,-11.949 16.663,-17.76c11.182,-17.43 16.663,-30.366 10.195,-53.168c-6.249,-17.102 -15.348,-27.626 -39.685,-43.303c-10.524,-6.797 -11.62,-6.687 -16.224,-8.77c-42.426,-18.965 -75.094,-25.214 -121.247,-29.16" style="fill:#c33;fill-rule:nonzero;"/></g><path id="OpenGL" d="M2100,58.517c0,4.056 -0.987,7.783 -3.07,11.291c-1.973,3.508 -4.823,6.249 -8.222,8.222c-3.508,1.973 -7.235,3.07 -11.291,3.07c-4.056,0 -7.783,-0.987 -11.292,-3.07c-3.508,-1.973 -6.248,-4.714 -8.221,-8.222c-1.974,-3.508 -3.07,-7.235 -3.07,-11.291c0,-4.057 0.987,-7.784 3.07,-11.292c1.973,-3.508 4.823,-6.249 8.221,-8.222c3.509,-1.973 7.236,-3.069 11.292,-3.069c4.056,0 7.783,0.986 11.291,3.069c3.509,1.973 6.249,4.714 8.222,8.222c2.083,3.508 3.07,7.345 3.07,11.292Zm-4.385,0c0,-5.043 -1.754,-9.319 -5.372,-12.827c-3.508,-3.508 -7.893,-5.371 -12.826,-5.371c-5.043,0 -9.318,1.754 -12.826,5.371c-3.508,3.508 -5.372,7.893 -5.372,12.827c0,4.933 1.754,9.318 5.372,12.826c3.508,3.508 7.893,5.372 12.826,5.372c5.043,0 9.318,-1.754 12.826,-5.372c3.618,-3.508 5.372,-7.784 5.372,-12.826Zm-28.393,-12.059l10.743,0c3.07,0 5.262,0.658 6.687,1.863c1.316,1.206 2.083,2.851 2.083,4.934c0,1.644 -0.548,3.069 -1.535,4.165c-1.096,1.206 -2.74,2.083 -4.933,2.522c0.877,0.329 1.645,0.767 2.083,1.096c0.658,0.548 1.206,1.316 1.973,2.412c0,0.109 1.316,2.412 3.947,7.016l-7.126,0c-2.302,-4.604 -3.837,-7.345 -4.604,-8.222c-0.767,-0.877 -1.535,-1.316 -2.412,-1.316c-0.219,0 -0.438,0 -0.767,0.11l0,9.538l-6.03,0l-0.109,-24.118Zm5.92,10.305l2.631,0c1.754,0 2.96,-0.329 3.617,-0.877c0.658,-0.549 1.097,-1.316 1.097,-2.193c0,-0.877 -0.329,-1.644 -0.987,-2.192c-0.658,-0.549 -1.864,-0.877 -3.508,-0.877l-2.85,0l0,6.139Z" style="fill-rule:nonzero;"/></svg>